<svg width="30" height="30" viewBox="0 0 30 30" fill="none" xmlns="http://www.w3.org/2000/svg">
<path d="M15 29.1667C22.7917 29.1667 29.1667 22.7917 29.1667 15C29.1667 7.20833 22.7917 0.833334 15 0.833334C7.20833 0.833334 0.833333 7.20833 0.833333 15C0.833333 22.7917 7.20833 29.1667 15 29.1667ZM15 30C6.70833 30 0 23.2917 0 15C0 6.70833 6.70833 0 15 0C23.2917 0 30 6.70833 30 15C30 23.2917 23.2917 30 15 30Z" fill="#F1F4F7"/>
<path d="M22.4999 13.9584H7.49992C6.91659 13.9584 6.45825 14.4167 6.45825 15.0001C6.45825 15.5834 6.91659 16.0417 7.49992 16.0417H22.4999C23.0833 16.0417 23.5416 15.5834 23.5416 15.0001C23.5416 14.4167 23.0833 13.9584 22.4999 13.9584Z" fill="white"/>
<path d="M17.5 8.66674C17.25 8.66674 16.9583 8.75007 16.75 8.95841C16.3333 9.37507 16.3333 10.0417 16.75 10.4167L21.3333 15.0001L16.75 19.5834C16.3333 20.0001 16.3333 20.6667 16.75 21.0417C17.1667 21.4584 17.8333 21.4584 18.2083 21.0417L23.5 15.7501C23.9167 15.3334 23.9167 14.6667 23.5 14.2917L18.2083 9.00008C18.0417 8.75008 17.7917 8.66674 17.5 8.66674Z" fill="white"/>
</svg>
