<?xml version="1.0" encoding="UTF-8"?>
<svg xmlns="http://www.w3.org/2000/svg" xmlns:xlink="http://www.w3.org/1999/xlink" width="19pt" height="20pt" viewBox="1 0 19 20" version="1.1">
<g id="surface1">
<path style=" stroke:none;fill-rule:nonzero;fill:rgb(100%,100%,100%);fill-opacity:1;" d="M 19.433594 14.332031 L 17.394531 11.097656 C 18.199219 10.628906 18.824219 9.367188 18.972656 8.953125 C 19.027344 8.839844 19.027344 8.746094 18.917969 8.691406 L 17.027344 6.230469 C 16.917969 6.078125 16.675781 6.113281 16.621094 6.285156 C 16.308594 7.113281 15.703125 7.957031 15.703125 7.957031 L 15.5 7.542969 C 16.070312 6.867188 16.109375 5.457031 16.109375 5.457031 C 16.054688 2.582031 14.527344 1.585938 13.242188 1.285156 C 12.835938 1.171875 12.582031 1.699219 12.894531 1.960938 C 13.296875 2.320312 13.609375 2.695312 13.609375 2.695312 C 14.671875 4.3125 14.070312 5.628906 14.070312 5.628906 C 13.867188 5.269531 13.203125 4.839844 12.125 4.425781 C 11.058594 4.011719 10.542969 2.863281 10.542969 2.863281 C 10.542969 2.863281 10.03125 3.953125 8.964844 4.425781 C 7.902344 4.839844 7.222656 5.253906 7.019531 5.628906 C 7.019531 5.628906 6.414062 4.332031 7.480469 2.695312 C 7.480469 2.695312 7.738281 2.375 8.085938 2.019531 C 8.398438 1.699219 8.085938 1.230469 7.738281 1.34375 C 6.449219 1.703125 4.925781 2.753906 4.925781 5.480469 C 4.925781 5.480469 4.925781 6.890625 5.535156 7.566406 L 5.332031 7.980469 C 5.332031 7.980469 4.722656 7.097656 4.414062 6.308594 C 4.355469 6.101562 4.101562 6.101562 4.007812 6.253906 L 2.117188 8.714844 C 2.0625 8.769531 2.0625 8.867188 2.0625 8.976562 C 2.265625 9.390625 2.867188 10.707031 3.640625 11.121094 L 1.601562 14.355469 C 1.601562 14.355469 1.140625 15.03125 1.398438 15.351562 C 1.65625 15.613281 2.171875 15.558594 2.171875 15.558594 C 2.171875 15.558594 4.667969 14.9375 5.386719 14.972656 C 5.386719 14.972656 6.25 18.734375 10.179688 18.734375 L 10.789062 18.734375 C 14.71875 18.734375 15.582031 14.972656 15.582031 14.972656 C 16.296875 14.972656 18.796875 15.558594 18.796875 15.558594 C 18.796875 15.558594 19.3125 15.671875 19.570312 15.351562 C 19.890625 15.007812 19.433594 14.332031 19.433594 14.332031 M 12.894531 16.304688 C 12.175781 16.664062 11.40625 16.832031 10.597656 16.832031 C 9.824219 16.832031 9.074219 16.683594 8.394531 16.363281 C 8.082031 16.25 7.988281 15.894531 8.136719 15.574219 C 8.246094 15.253906 8.597656 15.160156 8.910156 15.3125 C 10.027344 15.839844 11.351562 15.839844 12.433594 15.257812 C 12.691406 15.105469 13.039062 15.257812 13.203125 15.519531 C 13.316406 15.777344 13.148438 16.15625 12.894531 16.304688 M 13.316406 14.011719 C 12.707031 14.011719 12.136719 13.75 11.734375 13.390625 C 11.480469 13.128906 11.074219 12.980469 10.671875 12.980469 C 10.265625 12.980469 9.867188 13.128906 9.609375 13.449219 C 9.203125 13.804688 8.632812 14.070312 8.085938 14.070312 C 6.796875 14.070312 5.789062 13.015625 5.789062 11.71875 L 5.789062 11.359375 C 5.789062 11.359375 7.882812 10.777344 10.746094 10.777344 C 13.613281 10.777344 15.652344 11.398438 15.652344 11.398438 L 15.652344 11.71875 C 15.554688 12.957031 14.527344 14.011719 13.316406 14.011719 "/>
<path style=" stroke:none;fill-rule:nonzero;fill:rgb(100%,100%,100%);fill-opacity:1;" d="M 7.453125 11.878906 L 8.679688 12.234375 C 8.828125 12.277344 8.914062 12.429688 8.871094 12.582031 C 8.828125 12.730469 8.675781 12.820312 8.523438 12.773438 L 7.296875 12.417969 C 7.148438 12.375 7.0625 12.222656 7.105469 12.070312 C 7.148438 11.921875 7.304688 11.835938 7.453125 11.878906 Z M 13.671875 11.878906 L 12.445312 12.234375 C 12.296875 12.277344 12.210938 12.429688 12.253906 12.582031 C 12.296875 12.730469 12.449219 12.820312 12.601562 12.773438 L 13.828125 12.417969 C 13.972656 12.375 14.0625 12.222656 14.015625 12.070312 C 13.972656 11.921875 13.816406 11.835938 13.671875 11.878906 Z M 13.671875 11.878906 "/>
</g>
</svg>
