<?xml version="1.0" encoding="utf-8"?>
<!-- Generator: Adobe Illustrator 25.2.1, SVG Export Plug-In . SVG Version: 6.00 Build 0)  -->
<svg version="1.1" id="Layer_1" xmlns="http://www.w3.org/2000/svg" xmlns:xlink="http://www.w3.org/1999/xlink" x="0px" y="0px"
	 viewBox="0 0 72.63 68.55" style="enable-background:new 0 0 72.63 68.55;" xml:space="preserve">
<style type="text/css">
	.st0{fill:#FFFFFF;}
	.st1{fill-rule:evenodd;clip-rule:evenodd;fill:#FFFFFF;}
	.st2{fill:#DB5550;}
</style>
<g>
	<g>
		<g>
			<g>
				<path class="st0" d="M67.21,49.14l-7.05-11.1c2.79-1.61,4.95-5.94,5.46-7.36c0.19-0.39,0.19-0.71-0.19-0.9l-6.54-8.45
					c-0.38-0.52-1.21-0.39-1.4,0.19c-1.08,2.84-3.18,5.74-3.18,5.74l-0.7-1.42c1.97-2.32,2.1-7.16,2.1-7.16
					C55.52,8.81,50.25,5.39,45.8,4.36c-1.4-0.39-2.29,1.42-1.21,2.32c1.4,1.23,2.48,2.52,2.48,2.52c3.68,5.55,1.59,10.07,1.59,10.07
					c-0.7-1.23-2.99-2.71-6.73-4.13c-3.68-1.42-5.46-5.36-5.46-5.36s-1.78,3.74-5.46,5.36c-3.68,1.42-6.03,2.84-6.73,4.13
					c0,0-2.1-4.45,1.59-10.07c0,0,0.89-1.1,2.1-2.32c1.08-1.1,0-2.71-1.21-2.32c-4.45,1.23-9.72,4.84-9.72,14.2c0,0,0,4.84,2.1,7.16
					l-0.7,1.42c0,0-2.1-3.03-3.18-5.74c-0.19-0.71-1.08-0.71-1.4-0.19l-6.54,8.45c-0.19,0.19-0.19,0.52-0.19,0.9
					c0.7,1.42,2.79,5.94,5.46,7.36l-7.05,11.1c0,0-1.59,2.32-0.7,3.42c0.89,0.9,2.67,0.71,2.67,0.71s8.64-2.13,11.12-2
					c0,0,2.99,12.91,16.58,12.91h2.1c13.59,0,16.58-12.91,16.58-12.91c2.48,0,11.12,2,11.12,2s1.78,0.39,2.67-0.71
					C68.79,51.47,67.21,49.14,67.21,49.14 M44.59,55.92c-2.48,1.23-5.14,1.81-7.94,1.81c-2.67,0-5.27-0.52-7.62-1.61
					c-1.08-0.39-1.4-1.61-0.89-2.71c0.38-1.1,1.59-1.42,2.67-0.9c3.87,1.81,8.45,1.81,12.19-0.19c0.89-0.52,2.1,0,2.67,0.9
					C46.05,54.11,45.48,55.4,44.59,55.92 M46.05,48.05c-2.1,0-4.07-0.9-5.46-2.13c-0.89-0.9-2.29-1.42-3.68-1.42
					c-1.4,0-2.79,0.52-3.68,1.61c-1.4,1.23-3.37,2.13-5.27,2.13c-4.45,0-7.94-3.61-7.94-8.07v-1.23c0,0,7.24-2,17.15-2
					c9.91,0,16.96,2.13,16.96,2.13v1.1C53.8,44.43,50.25,48.05,46.05,48.05"/>
				<path class="st0" d="M25.78,40.72l4.24,1.22c0.51,0.15,0.81,0.68,0.66,1.2c-0.15,0.51-0.68,0.81-1.2,0.66l-4.24-1.22
					c-0.51-0.15-0.81-0.68-0.66-1.2C24.73,40.87,25.27,40.58,25.78,40.72z M47.28,40.72l-4.24,1.22c-0.51,0.15-0.81,0.68-0.66,1.2
					c0.15,0.51,0.68,0.81,1.2,0.66l4.24-1.22c0.51-0.15,0.81-0.68,0.66-1.2C48.33,40.87,47.79,40.58,47.28,40.72z"/>
			</g>
		</g>
	</g>
</g>
</svg>
