<svg width="1324" height="149" viewBox="0 0 1324 149" fill="none" xmlns="http://www.w3.org/2000/svg">
<path opacity="0.2" d="M487.56 41.314L460.419 51.532L487.56 61.6543V67.4977L453.809 54.1504V48.8498L487.56 35.5025V41.314Z" fill="#199696"/>
<path opacity="0.2" d="M678.009 97.6151L678.009 83.4695L663.8 83.4695L663.8 78.0731L678.009 78.0731L678.009 63.9275L683.374 63.9275L683.374 78.0731L697.551 78.0731L697.551 83.4695L683.374 83.4695L683.374 97.6151L678.009 97.6151Z" fill="#FFEBB4"/>
<path opacity="0.2" d="M164.095 93.4798V107.338C166.437 107.274 168.268 106.625 169.588 105.39C170.907 104.156 171.567 102.474 171.567 100.345C171.567 98.3653 170.971 96.8326 169.779 95.747C168.587 94.64 166.693 93.8843 164.095 93.4798ZM160.902 87.4129V74.2253C158.688 74.3104 156.954 74.949 155.698 76.1412C154.463 77.3333 153.846 78.9298 153.846 80.9308C153.846 82.7616 154.42 84.2091 155.57 85.2735C156.741 86.3379 158.518 87.051 160.902 87.4129ZM164.095 121.611H160.902L160.87 112C158.699 111.894 156.538 111.596 154.388 111.106C152.26 110.616 150.152 109.935 148.066 109.062V103.315C150.195 104.635 152.334 105.646 154.484 106.348C156.655 107.051 158.795 107.423 160.902 107.466V92.8412C156.645 92.1813 153.441 90.8828 151.291 88.9456C149.141 87.0084 148.066 84.4433 148.066 81.2502C148.066 77.908 149.184 75.2471 151.419 73.2673C153.675 71.2663 156.836 70.1168 160.902 69.8188V62.3149H164.095L164.127 69.8188C165.809 69.9252 167.512 70.1381 169.236 70.4574C170.961 70.7767 172.717 71.2131 174.505 71.7666V77.2907C172.696 76.3753 170.929 75.6728 169.204 75.1832C167.501 74.6723 165.798 74.3743 164.095 74.2891V88.0515C168.481 88.7114 171.823 90.0738 174.122 92.1387C176.421 94.2036 177.57 96.8752 177.57 100.153C177.57 103.432 176.325 106.167 173.835 108.36C171.365 110.552 168.129 111.745 164.127 111.936L164.095 121.611Z" fill="#FFEBB4"/>
<path opacity="0.2" d="M87.2126 54.1266L85.8688 59.412H89.5268L90.8855 54.1266H93.2744L91.9157 59.412H95.5588V61.6964H91.3633L89.9001 67.5642H93.6327V69.8486H89.3178L87.765 76H85.3761L86.9438 69.8486H83.2709L81.7032 76H79.3292L80.882 69.8486H77.0299V67.5642H81.4643L82.9275 61.6964H78.9559V59.412H83.4799L84.8237 54.1266H87.2126ZM88.9744 61.6964H85.3164L83.8532 67.5642H87.5261L88.9744 61.6964Z" fill="white"/>
<path opacity="0.2" d="M1217.21 67.1266L1215.87 72.412H1219.53L1220.88 67.1266H1223.27L1221.91 72.412H1225.56V74.6964H1221.36L1219.9 80.5642H1223.63V82.8486H1219.32L1217.76 89H1215.38L1216.94 82.8486H1213.27L1211.7 89H1209.33L1210.88 82.8486H1207.03V80.5642H1211.46L1212.93 74.6964H1208.95V72.412H1213.48L1214.82 67.1266H1217.21ZM1218.97 74.6964H1215.32L1213.85 80.5642H1217.53L1218.97 74.6964Z" fill="white"/>
<path opacity="0.2" d="M376.482 64.2569H384.469V90.0283L383.643 102.107H377.308L376.482 90.0283V64.2569ZM375.301 113.006H385.649V123H375.301V113.006Z" fill="#FFEBB4"/>
<path opacity="0.2" d="M18.9536 24.3342C16.9881 27.7037 15.5176 31.0659 14.5422 34.4206C13.5816 37.7606 13.1013 41.1301 13.1013 44.5292C13.1013 47.9135 13.5816 51.283 14.5422 54.6378C15.5176 57.9925 16.9881 61.3695 18.9536 64.7686H15.4067C13.1752 61.2512 11.5126 57.83 10.4189 54.5048C9.32533 51.1648 8.77852 47.8396 8.77852 44.5292C8.77852 41.2336 9.32533 37.9158 10.4189 34.5758C11.5126 31.2358 13.1752 27.8219 15.4067 24.3342L18.9536 24.3342Z" fill="#FFEBB4"/>
<path opacity="0.2" d="M963.841 71.2935C963.841 68.3296 963.106 65.9632 961.635 64.1941C960.165 62.402 958.201 61.506 955.742 61.506C953.284 61.506 951.308 62.402 949.815 64.1941C948.344 65.9632 947.609 68.3296 947.609 71.2935C947.609 74.2802 948.344 76.6697 949.815 78.4617C951.308 80.2308 953.284 81.1154 955.742 81.1154C958.201 81.1154 960.165 80.2308 961.635 78.4617C963.106 76.6697 963.841 74.2802 963.841 71.2935ZM968.666 85.4232H963.703V81.5979C962.853 83.0453 961.67 84.1596 960.153 84.9408C958.66 85.7219 956.971 86.1125 955.087 86.1125C951.388 86.1125 948.321 84.7225 945.886 81.9425C943.473 79.1625 942.267 75.6128 942.267 71.2935C942.267 66.9741 943.473 63.4244 945.886 60.6444C948.321 57.8644 951.388 56.4744 955.087 56.4744C956.925 56.4744 958.614 56.8765 960.153 57.6806C961.693 58.4847 962.876 59.5876 963.703 60.9891V58.8179C963.703 55.2337 962.692 52.3504 960.67 50.1677C958.649 47.9851 955.972 46.8937 952.641 46.8937C946.989 46.8937 942.486 49.0994 939.131 53.5106C935.8 57.8989 934.134 63.8495 934.134 71.3624C934.134 78.9212 936.029 84.9408 939.82 89.4209C943.611 93.9011 948.804 96.1527 955.398 96.1757C956.638 96.3595 958.384 96.4514 960.636 96.4514C962.888 96.4514 964.898 96.4054 966.667 96.3135V101.276C965.174 101.391 963.244 101.448 960.877 101.448C958.534 101.471 956.707 101.38 955.398 101.173C947.425 101.104 941.027 98.3928 936.202 93.0395C931.4 87.6863 928.999 80.4606 928.999 71.3624C928.999 62.402 931.159 55.2682 935.478 49.9609C939.797 44.6536 945.587 42 952.847 42C957.649 42 961.486 43.5279 964.358 46.5836C967.23 49.6393 968.666 53.7404 968.666 58.8868V85.4232Z" fill="#FFEBB4"/>
<line opacity="0.2" x1="1155.3" y1="81" x2="1155.3" y2="98" stroke="white" stroke-width="2.61127"/>
<line opacity="0.2" x1="1155.3" y1="112" x2="1155.3" y2="129" stroke="white" stroke-width="2.61127"/>
<path opacity="0.2" d="M1272.11 108.814L1277.22 108.814C1280.44 103.791 1282.83 98.8731 1284.41 94.0621C1285.98 89.2511 1286.77 84.4721 1286.77 79.725C1286.77 74.9353 1285.98 70.1349 1284.41 65.3239C1282.83 60.513 1280.44 55.5955 1277.22 50.5717L1272.11 50.5717C1274.94 55.5104 1277.05 60.3959 1278.43 65.2281C1279.84 70.0604 1280.54 74.8927 1280.54 79.725C1280.54 84.5785 1279.84 89.4214 1278.43 94.2537C1277.05 99.086 1274.94 103.94 1272.11 108.814Z" fill="#199696"/>
<path opacity="0.2" d="M23.808 116.968H29.0636V123H23.808V116.968ZM42.2325 116.968H47.488V123H42.2325V116.968ZM60.6569 116.968H65.9125V123H60.6569V116.968ZM79.0813 116.968H84.3369V123H79.0813V116.968ZM97.5057 116.968H102.761V123H97.5057V116.968Z" fill="#199696"/>
<path opacity="0.2" d="M503.212 104.127L501.868 109.412H505.526L506.885 104.127H509.273L507.915 109.412H511.558V111.696H507.362L505.899 117.564H509.632V119.849H505.317L503.764 126H501.375L502.943 119.849H499.27L497.702 126H495.328L496.881 119.849H493.029V117.564H497.463L498.926 111.696H494.955V109.412H499.479L500.823 104.127H503.212ZM504.973 111.696H501.315L499.852 117.564H503.525L504.973 111.696ZM521.636 104.127L520.292 109.412H523.95L525.309 104.127H527.698L526.339 109.412H529.982V111.696H525.787L524.324 117.564H528.056V119.849H523.741L522.188 126H519.8L521.367 119.849H517.694L516.127 126H513.753L515.305 119.849H511.453V117.564H515.888L517.351 111.696H513.379V109.412H517.903L519.247 104.127H521.636ZM523.398 111.696H519.74L518.277 117.564H521.95L523.398 111.696ZM540.06 104.127L538.717 109.412H542.375L543.733 104.127H546.122L544.764 109.412H548.407V111.696H544.211L542.748 117.564H546.481V119.849H542.166L540.613 126H538.224L539.792 119.849H536.119L534.551 126H532.177L533.73 119.849H529.878V117.564H534.312L535.775 111.696H531.804V109.412H536.328L537.672 104.127H540.06ZM541.822 111.696H538.164L536.701 117.564H540.374L541.822 111.696ZM558.485 104.127L557.141 109.412H560.799L562.158 104.127H564.547L563.188 109.412H566.831V111.696H562.636L561.172 117.564H564.905V119.849H560.59L559.037 126H556.648L558.216 119.849H554.543L552.975 126H550.601L552.154 119.849H548.302V117.564H552.737L554.2 111.696H550.228V109.412H554.752L556.096 104.127H558.485ZM560.247 111.696H556.589L555.125 117.564H558.798L560.247 111.696ZM576.909 104.127L575.566 109.412H579.224L580.582 104.127H582.971L581.612 109.412H585.256V111.696H581.06L579.597 117.564H583.329V119.849H579.015L577.462 126H575.073L576.641 119.849H572.968L571.4 126H569.026L570.579 119.849H566.727V117.564H571.161L572.624 111.696H568.653V109.412H573.177L574.52 104.127H576.909ZM578.671 111.696H575.013L573.55 117.564H577.223L578.671 111.696ZM595.334 104.127L593.99 109.412H597.648L599.007 104.127H601.396L600.037 109.412H603.68V111.696H599.484L598.021 117.564H601.754V119.849H597.439L595.886 126H593.497L595.065 119.849H591.392L589.824 126H587.45L589.003 119.849H585.151V117.564H589.585L591.049 111.696H587.077V109.412H591.601L592.945 104.127H595.334ZM597.096 111.696H593.438L591.974 117.564H595.647L597.096 111.696Z" fill="white"/>
<line opacity="0.2" x1="1155.3" y1="18" x2="1155.3" y2="35" stroke="white" stroke-width="2.61127"/>
<line opacity="0.2" x1="1155.3" y1="49" x2="1155.3" y2="66" stroke="white" stroke-width="2.61127"/>
<path opacity="0.2" d="M791.461 113.327L833.05 113.327V119.977L791.461 119.977V113.327ZM791.461 94.7953H833.05V101.445H791.461V94.7953Z" fill="#FFEBB4"/>
<path opacity="0.2" d="M254.356 124.673L279.454 70.9331L273.387 70.9331L248.257 124.673L254.356 124.673Z" fill="#199696"/>
<path opacity="0.2" d="M1070.05 81.7311L1063.98 81.7311L1063.98 76.8137C1063.98 74.7275 1064.3 72.9607 1064.94 71.5131C1065.6 70.0443 1066.82 68.4371 1068.61 66.6915L1071.49 63.8496C1072.81 62.5936 1073.71 61.4973 1074.2 60.5607C1074.71 59.624 1074.97 58.6341 1074.97 57.5911C1074.97 55.6965 1074.26 54.1638 1072.86 52.993C1071.48 51.8221 1069.62 51.2367 1067.3 51.2367C1065.64 51.2367 1063.86 51.6093 1061.97 52.3543C1060.08 53.0781 1058.09 54.1638 1056 55.6113L1056 49.6082C1058 48.3948 1060.01 47.4901 1062.03 46.8941C1064.08 46.298 1066.21 46 1068.42 46C1072.38 46 1075.53 47.0218 1077.87 49.0654C1080.23 51.109 1081.42 53.8445 1081.42 57.2717C1081.42 58.8896 1081.05 60.401 1080.33 61.806C1079.63 63.1897 1078.28 64.8608 1076.28 66.8192L1073.47 69.5653C1072 70.9703 1071.06 72.1198 1070.66 73.0139C1070.25 73.908 1070.05 75.0043 1070.05 76.3028L1070.05 77.8036L1070.05 81.7311ZM1063.76 86.425L1070.24 86.425L1070.24 94.5356L1063.76 94.5356L1063.76 86.425Z" fill="white"/>
</svg>
