<svg width="18" height="24" viewBox="0 0 18 24" fill="none" xmlns="http://www.w3.org/2000/svg">
<path d="M15.25 0H2.75C1.235 0 0 1.21198 0 2.69875V20.854C0 22.3407 1.235 23.5527 2.75 23.5527H15.25C16.765 23.5527 18 22.3407 18 20.854V2.69875C18 1.21198 16.765 0 15.25 0ZM9.25 13.7391H4.25C3.835 13.7391 3.5 13.4103 3.5 13.0031C3.5 12.5958 3.835 12.267 4.25 12.267H9.25C9.665 12.267 10 12.5958 10 13.0031C10 13.4103 9.665 13.7391 9.25 13.7391ZM13.75 9.81363H4.25C3.835 9.81363 3.5 9.48487 3.5 9.07761C3.5 8.67034 3.835 8.34158 4.25 8.34158H13.75C14.165 8.34158 14.5 8.67034 14.5 9.07761C14.5 9.48487 14.165 9.81363 13.75 9.81363ZM13.75 5.88818H4.25C3.835 5.88818 3.5 5.55942 3.5 5.15215C3.5 4.74489 3.835 4.41613 4.25 4.41613H13.75C14.165 4.41613 14.5 4.74489 14.5 5.15215C14.5 5.55942 14.165 5.88818 13.75 5.88818Z" fill="white"/>
</svg>
