<svg width="36" height="36" viewBox="0 0 36 36" fill="none" xmlns="http://www.w3.org/2000/svg">
<path d="M18 35C27.35 35 35 27.35 35 18C35 8.65 27.35 1 18 1C8.65 1 1 8.65 1 18C1 27.35 8.65 35 18 35ZM18 36C8.05 36 0 27.95 0 18C0 8.05 8.05 0 18 0C27.95 0 36 8.05 36 18C36 27.95 27.95 36 18 36Z" fill="#232323"/>
<path d="M27 16.75H9C8.3 16.75 7.75 17.3 7.75 18C7.75 18.7 8.3 19.25 9 19.25H27C27.7 19.25 28.25 18.7 28.25 18C28.25 17.3 27.7 16.75 27 16.75Z" fill="#232323"/>
<path d="M21.0001 10.4C20.7001 10.4 20.3501 10.5 20.1001 10.75C19.6001 11.25 19.6001 12.05 20.1001 12.5L25.6001 18L20.1001 23.5C19.6001 24 19.6001 24.8 20.1001 25.25C20.6001 25.75 21.4001 25.75 21.8501 25.25L28.2001 18.9C28.7001 18.4 28.7001 17.6 28.2001 17.15L21.8501 10.8C21.6501 10.5 21.3501 10.4 21.0001 10.4Z" fill="#232323"/>
</svg>
