<svg width="816" height="275" viewBox="0 0 816 275" fill="none" xmlns="http://www.w3.org/2000/svg">
<path d="M177.772 84.7908L34.8143 138.626L177.772 191.957V222.744L0 152.422V124.494L177.772 54.1719V84.7908Z" fill="#D1EBE7"/>
<path d="M470.649 154.777C470.649 140.309 467.061 128.756 459.885 120.12C452.709 111.372 443.123 106.998 431.125 106.998C419.128 106.998 409.486 111.372 402.198 120.12C395.022 128.756 391.434 140.309 391.434 154.777C391.434 169.357 395.022 181.022 402.198 189.77C409.486 198.406 419.128 202.724 431.125 202.724C443.123 202.724 452.709 198.406 459.885 189.77C467.061 181.022 470.649 169.357 470.649 154.777ZM494.195 223.754H469.976V205.079C465.828 212.145 460.053 217.585 452.653 221.398C445.365 225.212 437.124 227.118 427.93 227.118C409.878 227.118 394.91 220.333 383.025 206.762C371.252 193.191 365.365 175.862 365.365 154.777C365.365 133.691 371.252 116.363 383.025 102.792C394.91 89.221 409.878 82.4355 427.93 82.4355C436.9 82.4355 445.141 84.3983 452.653 88.3238C460.165 92.2493 465.94 97.6328 469.976 104.474V93.8756C469.976 76.379 465.043 62.3033 455.176 51.6484C445.309 40.9934 432.247 35.666 415.989 35.666C388.406 35.666 366.43 46.4331 350.06 67.9673C333.802 89.3893 325.673 118.438 325.673 155.113C325.673 192.013 334.924 221.398 353.424 243.269C371.924 265.14 397.264 276.131 429.444 276.243C435.498 277.14 444.02 277.589 455.008 277.589C465.996 277.589 475.807 277.365 484.44 276.916V301.142C477.152 301.703 467.734 301.983 456.185 301.983C444.748 302.095 435.835 301.647 429.444 300.637C390.537 300.301 359.31 287.066 335.765 260.934C312.331 234.801 300.614 199.528 300.614 155.113C300.614 111.372 311.153 76.5473 332.233 50.639C353.312 24.7307 381.567 11.7765 416.998 11.7765C440.432 11.7765 459.156 19.235 473.172 34.1519C487.187 49.0688 494.195 69.0888 494.195 94.212V223.754Z" fill="#D1EBE7"/>
<path d="M721.985 0L706.848 59.5555H748.053L763.358 0H790.268L774.963 59.5555H816V85.2955H768.74L752.258 151.412H794.304V177.152H745.699L728.207 246.465H701.298L718.957 177.152H677.584L659.924 246.465H633.183L650.674 177.152H607.282V151.412H657.233L673.715 85.2955H628.978V59.5555H679.938L695.075 0H721.985ZM741.83 85.2955H700.625L684.143 151.412H725.516L741.83 85.2955Z" fill="#D1EBE7"/>
</svg>
