<svg width="24" height="24" viewBox="0 0 24 24" fill="none" xmlns="http://www.w3.org/2000/svg">
<path d="M12 0C18.6274 0 24 5.37258 24 12C24 18.6274 18.6274 24 12 24C5.37258 24 0 18.6274 0 12C0 5.37258 5.37258 0 12 0ZM15.2051 6.94737C13.5959 6.94737 12.2892 8.23301 12.2892 9.81626C12.2892 10.0424 12.3134 10.2627 12.3678 10.471C9.94193 10.3519 7.79431 9.20915 6.3545 7.47115C6.10647 7.89374 5.96129 8.38776 5.96129 8.91155C5.96129 9.90554 6.47549 10.7864 7.26194 11.2983C6.78403 11.2864 6.33636 11.1555 5.94313 10.9412V10.9769C5.94313 12.3697 6.94736 13.5244 8.28433 13.7922C8.04234 13.8577 7.78222 13.8934 7.51604 13.8934C7.3285 13.8934 7.147 13.8756 6.96551 13.8398C7.33454 14.9826 8.41137 15.81 9.68784 15.8338C8.68965 16.6016 7.43134 17.0599 6.06413 17.0599C5.82819 17.0599 5.59831 17.048 5.36842 17.0182C6.64489 17.8396 8.18149 18.3158 9.82698 18.3158C15.193 18.3158 18.127 13.941 18.127 10.1496C18.127 10.0246 18.127 9.89959 18.121 9.78055C18.6897 9.37581 19.1857 8.86988 19.5789 8.29253C19.0587 8.51871 18.4961 8.67346 17.9032 8.74489C18.5082 8.38776 18.9679 7.82827 19.1857 7.15569C18.6231 7.48305 18 7.72114 17.3345 7.85208C16.8022 7.29259 16.046 6.94737 15.2051 6.94737Z" fill="white"/>
</svg>
